# xmcd
#
# Track frame offsets:
#	150
#	33914
#	56416
#	85529
#	119033
#	147418
#	173844
#	190260
#	209643
#	233890
#
# Disc length: 3489 seconds
#
# Revision: 1
# Processed by: cddbd v1.5.2PL0 Copyright (c) Steve Scherf et al.
# Submitted via: EZCDAudioConverter 8.0.2.1
#
DISCID=8c0d9f0a
DTITLE=Ngọc Tân - Chảy Đi Sông Ơi
DYEAR=1997
DGENRE=country
TTITLE0=Chảy Đi Sông Ơi
TTITLE1=Thuyền và biển
TTITLE2=Mong về Hà Nội
TTITLE3=Hà Nội ơi thầm hát trong tôi
TTITLE4=Anh sẽ đến
TTITLE5=Về quê
TTITLE6=Tiếng thu
TTITLE7=Lời tỏ tình của biển
TTITLE8=Hà Nội em và mùa thu
TTITLE9=Khoảnh khắc
EXTD=
EXTT0=
EXTT1=
EXTT2=
EXTT3=
EXTT4=
EXTT5=
EXTT6=
EXTT7=
EXTT8=
EXTT9=
PLAYORDER=
